<svg xmlns="http://www.w3.org/2000/svg" viewBox="0 0 412.48 54.54"><defs><style>.cls-1{fill:#1e1e23;}</style></defs><g id="Слой_2" data-name="Слой 2"><g id="_1_Экран_со_свернутой_плиткой_копия_" data-name="1 Экран со свернутой плиткой (копия)"><g id="_0_НАЖАТ_Верхний_баннер" data-name="0 НАЖАТ Верхний баннер"><g id="общее"><g id="Почему_МОТОРМАРТ" data-name="Почему МОТОРМАРТ"><path class="cls-1" d="M37.57,11.7a18.08,18.08,0,0,1,7.68-1.63,12.46,12.46,0,0,1,5.85,1.3,11.05,11.05,0,0,1,4.06,3.55,17.17,17.17,0,0,1,2.43,5.41,26.68,26.68,0,0,1,.82,6.8V53.42H50.24V27.13A8.47,8.47,0,0,0,47.77,21a8.25,8.25,0,0,0-12,0,8.48,8.48,0,0,0-2.48,6.12V53.42H25.16V27.13A8.42,8.42,0,0,0,22.7,21a7.28,7.28,0,0,0-2.78-2,8.56,8.56,0,0,0-3.21-.61A8,8,0,0,0,10.66,21a8.48,8.48,0,0,0-2.48,6.12V53.42H0V11.31H8.18v5.24L10,14.94a26,26,0,0,1,5.06-3.53,10.87,10.87,0,0,1,5.12-1.34A10.72,10.72,0,0,1,26,11.5a15,15,0,0,1,4.18,4.13L31,16.75l.92-1a17.73,17.73,0,0,1,5.7-4m85.56-9.6V39.91a13.33,13.33,0,0,0,1,5.23A14.07,14.07,0,0,0,127,49.46a12.83,12.83,0,0,0,4.14,2.9,12.52,12.52,0,0,0,5.1,1.06h8.1l-2-8.39h-6.06a4.66,4.66,0,0,1-3.46-1.49,5,5,0,0,1-1.44-3.63V25h8.33l-2-8.38h-6.29V0Zm97.51,9.12a20.86,20.86,0,0,0-5.22,3.21l-1.8,1.51V11.22h-8.18v42.2h8.18V32.28a14,14,0,0,1,3.93-9.83,12.89,12.89,0,0,1,8.52-4V10a16,16,0,0,0-5.43,1.21m53.84.48a17.73,17.73,0,0,0-5.7,4l-.91,1-.78-1.12a15,15,0,0,0-4.19-4.13,10.72,10.72,0,0,0-5.82-1.43A10.84,10.84,0,0,0,252,11.41a25.38,25.38,0,0,0-5.06,3.53l-1.82,1.61V11.31h-8.18V53.42h8.18V27.13A8.45,8.45,0,0,1,247.58,21a7.93,7.93,0,0,1,6-2.55,8.52,8.52,0,0,1,3.21.61,7.24,7.24,0,0,1,2.79,2,8.46,8.46,0,0,1,2.46,6.09V53.42h8.17V27.13A8.52,8.52,0,0,1,272.73,21a8.25,8.25,0,0,1,11.95,0,8.43,8.43,0,0,1,2.47,6.1V53.42h8.18V27.13a26.67,26.67,0,0,0-.83-6.8,17.15,17.15,0,0,0-2.42-5.41A11.21,11.21,0,0,0,288,11.37a12.5,12.5,0,0,0-5.86-1.3,18.11,18.11,0,0,0-7.68,1.63m44.22.09a20.36,20.36,0,0,0-6.6,4.76,22.09,22.09,0,0,0-4.36,7.09,24.16,24.16,0,0,0-1.57,8.73A23.86,23.86,0,0,0,307.74,41a22.24,22.24,0,0,0,4.35,7.09,20.36,20.36,0,0,0,6.61,4.76,17.17,17.17,0,0,0,1.8.7h13.16c.41-.14.82-.3,1.22-.47l-2.94-7.48a13.37,13.37,0,0,1-4,.58,13.76,13.76,0,0,1-5.2-1,12.42,12.42,0,0,1-4.42-3.07,13.52,13.52,0,0,1-3.93-9.73,13.75,13.75,0,0,1,8.33-12.85,13.35,13.35,0,0,1,5.22-1.06,12.91,12.91,0,0,1,9.59,4.05,13.65,13.65,0,0,1,4,9.86V53.42h8.18V11.22h-8.18V16l-1.78-1.45a21.44,21.44,0,0,0-5.51-3.21A19.06,19.06,0,0,0,327,10.07a20.16,20.16,0,0,0-8.33,1.72m58.7-.57a20.86,20.86,0,0,0-5.22,3.21l-1.8,1.51V11.22H362.2v42.2h8.18V32.28a14,14,0,0,1,3.94-9.83,12.84,12.84,0,0,1,8.51-4V10a16,16,0,0,0-5.43,1.21M393.24,2.1V39.91a13.52,13.52,0,0,0,1,5.23,14.23,14.23,0,0,0,2.8,4.32,13,13,0,0,0,4.15,2.9,12.52,12.52,0,0,0,5.1,1.06h6.15v-8l-.1-.42h-6.05a4.67,4.67,0,0,1-3.47-1.49,5,5,0,0,1-1.43-3.63V25h8.33l-2-8.38h-6.29V0ZM111,23.64a22.5,22.5,0,0,0-4.66-7.1,21.82,21.82,0,0,0-6.92-4.78,18.16,18.16,0,0,0-1.86-.7h-.11a21.83,21.83,0,0,0-13,0h-.11a16.55,16.55,0,0,0-1.86.7,21.71,21.71,0,0,0-6.92,4.78A22.47,22.47,0,0,0,71,23.64a22.2,22.2,0,0,0-1.69,8.6v.13A22,22,0,0,0,71,41a22.44,22.44,0,0,0,4.64,7.1,22,22,0,0,0,6.92,4.78,17.48,17.48,0,0,0,1.87.7h.11a21.83,21.83,0,0,0,13,0h.11a18.16,18.16,0,0,0,1.86-.7,21.93,21.93,0,0,0,6.92-4.78A22.64,22.64,0,0,0,111,41a22.24,22.24,0,0,0,1.69-8.6s0,0,0,0,0-.06,0-.09A22.34,22.34,0,0,0,111,23.64ZM100.58,42.09A12.92,12.92,0,0,1,91,46.15a13.34,13.34,0,0,1-9.58-4,13.64,13.64,0,0,1-4-9.84,13.64,13.64,0,0,1,3.94-9.76A13,13,0,0,1,91,18.46a13.32,13.32,0,0,1,9.57,4,13.62,13.62,0,0,1,4,9.81A13.6,13.6,0,0,1,100.58,42.09Zm93.58-9.85a22.43,22.43,0,0,0-6.33-15.7,21.89,21.89,0,0,0-6.91-4.78,18.33,18.33,0,0,0-1.87-.7h-.12a21.8,21.8,0,0,0-13,0h-.11a17.32,17.32,0,0,0-1.86.7A21.86,21.86,0,0,0,157,16.54a22.64,22.64,0,0,0-4.65,7.1,22.2,22.2,0,0,0-1.68,8.6v.13a22.16,22.16,0,0,0,1.68,8.6,22.64,22.64,0,0,0,4.65,7.1A21.86,21.86,0,0,0,164,52.85a17.15,17.15,0,0,0,1.85.7h.12a21.83,21.83,0,0,0,13,0h.11a18.16,18.16,0,0,0,1.86-.7,21.82,21.82,0,0,0,6.92-4.78,22.64,22.64,0,0,0,4.65-7.1,22.23,22.23,0,0,0,1.68-8.6v-.13ZM182,42.09a12.92,12.92,0,0,1-9.6,4.06,13.34,13.34,0,0,1-9.57-4,13.68,13.68,0,0,1-4-9.81,13.68,13.68,0,0,1,4-9.79,12.94,12.94,0,0,1,9.59-4.05,13.35,13.35,0,0,1,9.59,4,13.67,13.67,0,0,1,4,9.84A13.59,13.59,0,0,1,182,42.09Z"/></g></g></g></g></g></svg>