<svg xmlns="http://www.w3.org/2000/svg" viewBox="0 0 15.67 15.84"><defs><style>.cls-1{fill:#f9bf26;}</style></defs><g id="Слой_2" data-name="Слой 2"><g id="ВАРИАНТ_4_гибрид_" data-name="ВАРИАНТ 4 (гибрид)"><g id="ГЛАВНАЯ_СТРАНИЦА_копия_" data-name="ГЛАВНАЯ СТРАНИЦА (копия)"><g id="фон_копия_" data-name="фон (копия)"><g id="левая_панель" data-name="левая панель"><path class="cls-1" d="M1.18,0a.69.69,0,0,1,.51.25l7,7.18A.58.58,0,0,1,9,7.92a.61.61,0,0,1-.24.5l-7,7.17a.69.69,0,0,1-.51.25.69.69,0,0,1-.51-.25l-.43-.43a.59.59,0,0,1-.24-.5.77.77,0,0,1,.24-.55L6.35,7.92.24,1.73A.77.77,0,0,1,0,1.18.59.59,0,0,1,.24.68L.67.25A.69.69,0,0,1,1.18,0Z"/><path class="cls-1" d="M7.89,0a.71.71,0,0,1,.52.25l7,7.18a.58.58,0,0,1,.24.49.61.61,0,0,1-.24.5l-7,7.17a.71.71,0,0,1-.52.25.69.69,0,0,1-.51-.25L7,15.16a.58.58,0,0,1-.25-.5A.74.74,0,0,1,7,14.11l6.11-6.19L7,1.73a.74.74,0,0,1-.25-.55A.58.58,0,0,1,7,.68L7.38.25A.69.69,0,0,1,7.89,0Z"/></g></g></g></g></g></svg>