<svg xmlns="http://www.w3.org/2000/svg" viewBox="0 0 9.65 5.51"><defs><style>.cls-1{fill:#fff;}</style></defs><g id="Слой_2" data-name="Слой 2"><g id="фон_копия2_" data-name="фон (копия2)"><path class="cls-1" d="M6.88,0a.23.23,0,0,1,.18.09l2.5,2.49a.23.23,0,0,1,.09.18.2.2,0,0,1-.09.17l-2.5,2.5a.22.22,0,0,1-.18.08.24.24,0,0,1-.18-.08l-.15-.15a.21.21,0,0,1-.09-.18.26.26,0,0,1,.09-.19L8.36,3.12H.26a.24.24,0,0,1-.18-.07A.22.22,0,0,1,0,2.86V2.65a.22.22,0,0,1,.08-.18.25.25,0,0,1,.18-.08h8.1L6.55.6A.25.25,0,0,1,6.46.41.2.2,0,0,1,6.55.24L6.7.09A.26.26,0,0,1,6.88,0Z"/></g></g></svg>