<svg xmlns="http://www.w3.org/2000/svg" viewBox="0 0 15.35 10.52"><defs><style>.cls-1{fill:#fabe28;}</style></defs><g id="Слой_2" data-name="Слой 2"><g id="контент"><g id="_04_ПОХОЖИЕ_АВТО" data-name="04_ПОХОЖИЕ АВТО"><path class="cls-1" d="M10.94,0a.43.43,0,0,1,.3.16l4,4.77a.45.45,0,0,1,.14.33.42.42,0,0,1-.14.33l-4,4.77a.39.39,0,0,1-.3.16.38.38,0,0,1-.29-.16l-.24-.29a.42.42,0,0,1-.13-.33.58.58,0,0,1,.13-.37L13.29,6H.41a.38.38,0,0,1-.29-.14A.53.53,0,0,1,0,5.47V5.06a.51.51,0,0,1,.12-.35.36.36,0,0,1,.29-.15H13.29L10.41,1.15a.56.56,0,0,1-.13-.37.42.42,0,0,1,.13-.33l.24-.29A.41.41,0,0,1,10.94,0Z"/></g></g></g></svg>