<svg xmlns="http://www.w3.org/2000/svg" viewBox="0 0 4.63 8"><defs><style>.cls-1{fill:#5b5b5f;}</style></defs><g id="Слой_2" data-name="Слой 2"><g id="ВАРИАНТ_4_гибрид_" data-name="ВАРИАНТ 4 (гибрид)"><g id="ГЛАВНАЯ_СТРАНИЦА_копия_" data-name="ГЛАВНАЯ СТРАНИЦА (копия)"><g id="фон_копия_" data-name="фон (копия)"><g id="левая_панель" data-name="левая панель"><path class="cls-1" d="M.61,0A.41.41,0,0,1,.88.12L4.5,3.75a.31.31,0,0,1,0,.5L.88,7.88A.41.41,0,0,1,.61,8a.41.41,0,0,1-.27-.12L.13,7.66A.3.3,0,0,1,0,7.41a.35.35,0,0,1,.13-.28L3.28,4,.13.88A.39.39,0,0,1,0,.59.3.3,0,0,1,.13.34L.34.12A.41.41,0,0,1,.61,0Z"/></g></g></g></g></g></svg>