<svg xmlns="http://www.w3.org/2000/svg" viewBox="0 0 40 29.34"><defs><style>.cls-1{fill:#5b5b5f;}</style></defs><g id="Слой_2" data-name="Слой 2"><g id="ВАРИАНТ_4_гибрид_" data-name="ВАРИАНТ 4 (гибрид)"><g id="ГЛАВНАЯ_СТРАНИЦА_копия_" data-name="ГЛАВНАЯ СТРАНИЦА (копия)"><g id="фон_копия_" data-name="фон (копия)"><g id="левая_панель" data-name="левая панель"><path class="cls-1" d="M15.37,16.49a11.62,11.62,0,0,1,1.92-6.4H5.44A.85.85,0,0,1,4.6,8.83l2.54-6.2A2.21,2.21,0,0,1,9,1.36H23.12A2.19,2.19,0,0,1,25,2.63l.94,2.27c.35,0,.71-.05,1.07-.05a9.92,9.92,0,0,1,1.23.07L27.09,2.11A3.69,3.69,0,0,0,24,0H8.19A3.69,3.69,0,0,0,5.05,2.11L3.37,6.21,1.75,5.76a1.65,1.65,0,0,0-.43-.06A1.32,1.32,0,0,0,0,7.09v1A1.72,1.72,0,0,0,1.71,9.76h.2l-.27.66a12.85,12.85,0,0,0-.8,4.07v8.15a1.7,1.7,0,0,0,1.7,1.7H4.77a1.7,1.7,0,0,0,1.71-1.7v-2h9.65A11.67,11.67,0,0,1,15.37,16.49Zm-5,.18a.69.69,0,0,1-.69.69H4.81a.69.69,0,0,1-.69-.69V14.35a.69.69,0,0,1,.69-.68H9.64a.69.69,0,0,1,.69.68Zm16.13,8.62a9.43,9.43,0,0,0,5.63-1.85l5.48,5.48a1.43,1.43,0,0,0,1,.42,1.39,1.39,0,0,0,1-.42,1.41,1.41,0,0,0,0-2L34.1,21.43a9.49,9.49,0,0,0-.93-12.34L33.08,9A9.63,9.63,0,0,0,18.37,20.75a9.64,9.64,0,0,0,1.38,1.76A9.42,9.42,0,0,0,26.46,25.29Zm-4.7-14.2a6.66,6.66,0,0,1,9.4,0,6.72,6.72,0,0,1,1.27,1.79A6.51,6.51,0,0,1,22.3,21a6.17,6.17,0,0,1-.54-.48,6.65,6.65,0,0,1,0-9.41Z"/></g></g></g></g></g></svg>