<svg xmlns="http://www.w3.org/2000/svg" viewBox="0 0 28 24.96"><defs><style>.cls-1{fill:#5b5b5f;}</style></defs><g id="Слой_2" data-name="Слой 2"><g id="ВАРИАНТ_4_гибрид_" data-name="ВАРИАНТ 4 (гибрид)"><g id="ГЛАВНАЯ_СТРАНИЦА_копия_" data-name="ГЛАВНАЯ СТРАНИЦА (копия)"><g id="фон_копия_" data-name="фон (копия)"><g id="левая_панель" data-name="левая панель"><path class="cls-1" d="M7,.08H4.79A4.8,4.8,0,0,0,0,4.87v18A2,2,0,0,0,2.05,25H9.71a2,2,0,0,0,2-2.05v-18A4.8,4.8,0,0,0,7,.08ZM4.34.93A4.09,4.09,0,0,1,.85,4.42,4,4,0,0,1,4.34.93ZM.82,11.65a4.92,4.92,0,0,1,.46-2.1l1.08,1.54a1.17,1.17,0,0,0-.17.61v6a1.14,1.14,0,0,0,.12.52L1.05,20a1.32,1.32,0,0,1-.23-.73ZM3.42,19H8.34a1.18,1.18,0,0,0,.53-.12L10,20.49a1.13,1.13,0,0,1-.32.05H2.05a1.13,1.13,0,0,1-.32-.05l1.16-1.66a1.18,1.18,0,0,0,.53.12Zm5.36-8.4a1.32,1.32,0,0,0-.44-.08H3.42a1.27,1.27,0,0,0-.44.08L1.73,8.76a5.05,5.05,0,0,1,8.3,0Zm2.16,8.75a1.2,1.2,0,0,1-.24.72L9.45,18.24a1.14,1.14,0,0,0,.12-.52v-6a1.17,1.17,0,0,0-.17-.61l1.08-1.54a5.08,5.08,0,0,1,.46,2.1ZM7.59,1a4,4,0,0,1,3.32,3.44A4.11,4.11,0,0,1,7.59,1ZM23.21.08H21a4.8,4.8,0,0,0-4.79,4.79v18A2,2,0,0,0,18.29,25H26A2,2,0,0,0,28,22.91v-18A4.8,4.8,0,0,0,23.21.08Zm3.94,4.31A4.12,4.12,0,0,1,23.83,1a4,4,0,0,1,3.32,3.44ZM20.58.93a4.09,4.09,0,0,1-3.49,3.49A4,4,0,0,1,20.58.93ZM17.06,11.65a5.08,5.08,0,0,1,.46-2.1l1.08,1.54a1.17,1.17,0,0,0-.17.61v6a1.14,1.14,0,0,0,.12.52L17.3,20a1.25,1.25,0,0,1-.24-.73Zm2.6,7.3h4.92a1.18,1.18,0,0,0,.53-.12l1.16,1.66a1.13,1.13,0,0,1-.32.05H18.29a1.13,1.13,0,0,1-.32-.05l1.16-1.66a1.21,1.21,0,0,0,.53.12ZM25,10.55a1.27,1.27,0,0,0-.44-.08H19.66a1.22,1.22,0,0,0-.43.08L18,8.76a5.05,5.05,0,0,1,8.3,0Zm2.16,8.75A1.26,1.26,0,0,1,27,20l-1.26-1.78a1.14,1.14,0,0,0,.12-.52v-6a1.17,1.17,0,0,0-.17-.61l1.08-1.54a4.92,4.92,0,0,1,.46,2.1ZM13.62,0h.82V24.72h-.82Zm-12,22.5h.82v.82H1.61Zm7.71,0h.82v.82H9.32Zm8.65,0h.82v.82H18Zm7.71,0h.82v.82h-.82Z"/></g></g></g></g></g></svg>