<svg xmlns="http://www.w3.org/2000/svg" viewBox="0 0 22.02 19.97"><defs><style>.cls-1{fill:#5b5b5f;}</style></defs><g id="Слой_2" data-name="Слой 2"><g id="ВАРИАНТ_4_гибрид_" data-name="ВАРИАНТ 4 (гибрид)"><g id="ГЛАВНАЯ_СТРАНИЦА_копия_" data-name="ГЛАВНАЯ СТРАНИЦА (копия)"><g id="фон_копия_" data-name="фон (копия)"><g id="левая_панель" data-name="левая панель"><path class="cls-1" d="M15.6,0a6.41,6.41,0,0,0-2.92.7A6.74,6.74,0,0,0,11,1.93,6.93,6.93,0,0,0,9.34.7,6.42,6.42,0,0,0,0,6.42c0,2.5,1.32,5.17,3.93,7.91a38.36,38.36,0,0,0,6.71,5.4L11,20l.37-.24a38.34,38.34,0,0,0,6.7-5.4C20.69,11.59,22,8.92,22,6.42A6.43,6.43,0,0,0,15.6,0Z"/></g></g></g></g></g></svg>