<svg xmlns="http://www.w3.org/2000/svg" xmlns:xlink="http://www.w3.org/1999/xlink" viewBox="0 0 173.69 22.38"><defs><style>.cls-1{fill:url(#linear-gradient);}</style><linearGradient id="linear-gradient" y1="11.19" x2="173.69" y2="11.19" gradientUnits="userSpaceOnUse"><stop offset="0" stop-color="#96a5b4"/><stop offset="0.08" stop-color="#b1bcc7"/><stop offset="0.24" stop-color="#dbe0e5"/><stop offset="0.36" stop-color="#f5f7f8"/><stop offset="0.43" stop-color="#fff"/><stop offset="0.48" stop-color="#f4f6f7"/><stop offset="0.57" stop-color="#d6dce2"/><stop offset="0.7" stop-color="#a7b3c0"/><stop offset="0.74" stop-color="#96a5b4"/><stop offset="0.85" stop-color="#c9d1d9"/><stop offset="0.95" stop-color="#f0f2f4"/><stop offset="1" stop-color="#fff"/></linearGradient></defs><g id="Слой_2" data-name="Слой 2"><g id="ВАРИАНТ_4_гибрид_" data-name="ВАРИАНТ 4 (гибрид)"><g id="ГЛАВНАЯ_СТРАНИЦА_копия_" data-name="ГЛАВНАЯ СТРАНИЦА (копия)"><g id="фон_копия_" data-name="фон (копия)"><g id="верхняя_панель" data-name="верхняя панель"><path id="логотип" class="cls-1" d="M15.82,4.8a7.85,7.85,0,0,1,3.23-.67,5.48,5.48,0,0,1,2.47.53,4.85,4.85,0,0,1,1.71,1.46,7,7,0,0,1,1,2.22,10.82,10.82,0,0,1,.35,2.79V21.92H21.15V11.13a3.41,3.41,0,0,0-1-2.5,3.51,3.51,0,0,0-5,0A3.41,3.41,0,0,0,14,11.13V21.92H10.59V11.13a3.44,3.44,0,0,0-1-2.5,3.09,3.09,0,0,0-1.17-.81A3.89,3.89,0,0,0,7,7.57a3.4,3.4,0,0,0-2.55,1,3.41,3.41,0,0,0-1.05,2.51V21.92H0V4.64H3.44V6.79l.77-.66A10.85,10.85,0,0,1,6.34,4.68a4.58,4.58,0,0,1,2.15-.55A4.64,4.64,0,0,1,11,4.72a6.51,6.51,0,0,1,1.76,1.69l.32.46.39-.41a7.46,7.46,0,0,1,2.4-1.66m36-3.94V16.38a5.35,5.35,0,0,0,.43,2.14,5.83,5.83,0,0,0,1.18,1.77,5.48,5.48,0,0,0,1.75,1.19,5.32,5.32,0,0,0,2.14.44h3.42l-.86-3.44H57.35a2,2,0,0,1-1.45-.61,2.05,2.05,0,0,1-.61-1.49V10.27H58.8l-.86-3.44H55.29V0ZM92.91,4.6a8.93,8.93,0,0,0-2.2,1.32L90,6.54V4.6H86.51V21.92H90V13.25a5.69,5.69,0,0,1,1.66-4,5.5,5.5,0,0,1,3.58-1.66V4.11a6.75,6.75,0,0,0-2.28.49m22.67.2a7.46,7.46,0,0,0-2.4,1.66l-.39.41-.32-.46a6.27,6.27,0,0,0-1.77-1.69,4.92,4.92,0,0,0-4.6,0A10.85,10.85,0,0,0,104,6.13l-.77.66V4.64H99.76V21.92h3.44V11.13a3.45,3.45,0,0,1,1-2.51,3.39,3.39,0,0,1,2.54-1,3.86,3.86,0,0,1,1.36.25,3.09,3.09,0,0,1,1.17.81,3.44,3.44,0,0,1,1,2.5V21.92h3.44V11.13a3.44,3.44,0,0,1,1-2.51,3.4,3.4,0,0,1,2.52-1,3.35,3.35,0,0,1,2.51,1.06,3.41,3.41,0,0,1,1,2.5V21.92h3.45V11.13A10.82,10.82,0,0,0,124,8.34a7,7,0,0,0-1-2.22,4.85,4.85,0,0,0-1.71-1.46,5.48,5.48,0,0,0-2.47-.53,7.85,7.85,0,0,0-3.23.67m18.62,0a8.42,8.42,0,0,0-2.78,2,9.23,9.23,0,0,0-1.84,2.91,9.65,9.65,0,0,0-.66,3.58,9.48,9.48,0,0,0,.66,3.54,9,9,0,0,0,1.84,2.91,8.45,8.45,0,0,0,2.78,2A6.92,6.92,0,0,0,135,22h5.54a5.27,5.27,0,0,0,.51-.19l-1.23-3.07a5.84,5.84,0,0,1-1.71.24,6,6,0,0,1-2.19-.41A5.43,5.43,0,0,1,134,17.28a5.51,5.51,0,0,1-1.65-4,5.52,5.52,0,0,1,1.66-4,5.72,5.72,0,0,1,4-1.67,5.7,5.7,0,0,1,5.71,5.71v8.64h3.44V4.6h-3.44v2L143,6a9.34,9.34,0,0,0-2.32-1.32,8.24,8.24,0,0,0-3-.51,8.63,8.63,0,0,0-3.51.71m24.72-.24a8.93,8.93,0,0,0-2.2,1.32l-.76.62V4.6h-3.44V21.92H156V13.25a5.65,5.65,0,0,1,1.66-4,5.5,5.5,0,0,1,3.58-1.66V4.11a6.75,6.75,0,0,0-2.28.49M165.59.86V16.38a5.53,5.53,0,0,0,.43,2.14,6,6,0,0,0,1.18,1.77A5.48,5.48,0,0,0,169,21.48a5.37,5.37,0,0,0,2.15.44h2.59V18.65l0-.17H171.1a2,2,0,0,1-1.46-.61,2.05,2.05,0,0,1-.61-1.49V10.27h3.51l-.86-3.44H169V0ZM46.76,9.7a9.34,9.34,0,0,0-2-2.92,9.13,9.13,0,0,0-2.91-1.95,7.31,7.31,0,0,0-.78-.29h-.05a9.33,9.33,0,0,0-5.47,0h0a6.58,6.58,0,0,0-.78.29A9,9,0,0,0,29.87,9.7a8.94,8.94,0,0,0-.71,3.53v0a9.07,9.07,0,0,0,2.67,6.44,9.21,9.21,0,0,0,2.91,2,5.77,5.77,0,0,0,.79.29h0a9.33,9.33,0,0,0,5.47,0h.05a5.64,5.64,0,0,0,.78-.29,9.1,9.1,0,0,0,2.91-2,9.07,9.07,0,0,0,2.67-6.44v0A9.11,9.11,0,0,0,46.76,9.7Zm-4.41,7.57a5.49,5.49,0,0,1-4,1.67,5.68,5.68,0,0,1-4-1.66,5.69,5.69,0,0,1,0-8,5.53,5.53,0,0,1,4-1.67,5.71,5.71,0,0,1,4,1.66,5.67,5.67,0,0,1,0,8Zm39.41-4a8.94,8.94,0,0,0-.71-3.53,9.15,9.15,0,0,0-2-2.92,9.36,9.36,0,0,0-2.91-1.95,7.47,7.47,0,0,0-.79-.29h0a9.11,9.11,0,0,0-2.73-.41,9.23,9.23,0,0,0-2.74.41h0a7.47,7.47,0,0,0-.79.29,9.36,9.36,0,0,0-2.91,2,9.15,9.15,0,0,0-2,2.92,8.94,8.94,0,0,0-.71,3.53v0a9.07,9.07,0,0,0,2.67,6.44,9.21,9.21,0,0,0,2.91,2,6.16,6.16,0,0,0,.78.29h.05a9.36,9.36,0,0,0,5.48,0h0a5.77,5.77,0,0,0,.79-.29,9.21,9.21,0,0,0,2.91-2,9.07,9.07,0,0,0,2.67-6.44v0Zm-5.11,4a5.49,5.49,0,0,1-4,1.67,5.68,5.68,0,0,1-4-1.66,5.5,5.5,0,0,1-1.67-4,5.68,5.68,0,0,1,5.7-5.68,5.67,5.67,0,0,1,4,1.66,5.53,5.53,0,0,1,1.67,4A5.49,5.49,0,0,1,76.65,17.27Z"/></g></g></g></g></g></svg>