<svg xmlns="http://www.w3.org/2000/svg" viewBox="0 0 85.02 659.63"><defs><style>.cls-1{fill:#ebf0f0;}</style></defs><g id="Слой_2" data-name="Слой 2"><g id="контент"><g id="_01_ХАРАКТЕРИСТИКИ" data-name="01_ХАРАКТЕРИСТИКИ"><path id="логотип" class="cls-1" d="M66.78,60.09a29.36,29.36,0,0,1,2.55,12.27,20.3,20.3,0,0,1-2,9.36,17.87,17.87,0,0,1-5.53,6.49,26.44,26.44,0,0,1-8.43,3.88,40.79,40.79,0,0,1-10.61,1.32h-41V80.34h41a13.07,13.07,0,0,0,9.52-4,13.42,13.42,0,0,0,0-19.1,13,13,0,0,0-9.54-4h-41V40.23h41a13,13,0,0,0,9.5-3.92,12,12,0,0,0,3.07-4.46,14.14,14.14,0,0,0,1-5.12,12.9,12.9,0,0,0-4-9.68,13,13,0,0,0-9.54-4h-41V0H67.39V13.08H59.23l2.5,2.9a42,42,0,0,1,5.51,8.09,17.7,17.7,0,0,1,2.09,8.19,17.53,17.53,0,0,1-2.23,9.31,23.94,23.94,0,0,1-6.45,6.69L58.91,49.5,60.49,51a28.14,28.14,0,0,1,6.29,9.12m15,136.82H22.8a20.12,20.12,0,0,0-8.14,1.65A22.11,22.11,0,0,0,7.92,203a20.53,20.53,0,0,0-4.52,6.63,20.3,20.3,0,0,0-1.65,8.15v13l13.08-3.27v-9.69a7.65,7.65,0,0,1,2.31-5.54A7.77,7.77,0,0,1,22.8,210H46v13.33L59.09,220V210H85ZM67.53,352.83a33.89,33.89,0,0,0-5-8.34l-2.36-2.88h7.36V328.53H1.75v13.08h33A21.57,21.57,0,0,1,50,347.91a20.79,20.79,0,0,1,6.3,13.61h13.1a26,26,0,0,0-1.89-8.69M66.78,439a28.25,28.25,0,0,0-6.29-9.12l-1.58-1.46,1.74-1.25a23.81,23.81,0,0,0,6.45-6.69A18.73,18.73,0,0,0,67.24,403a41.43,41.43,0,0,0-5.51-8.1l-2.5-2.9h8.16V378.86H1.75V392h41a13.07,13.07,0,0,1,9.54,4,12.92,12.92,0,0,1,4,9.67,14.16,14.16,0,0,1-1,5.14,12,12,0,0,1-3.07,4.46,13,13,0,0,1-9.5,3.93h-41v13.07h41a13,13,0,0,1,9.54,4,13.44,13.44,0,0,1,0,19.11,13.06,13.06,0,0,1-9.52,3.94h-41v13.08h41A40.36,40.36,0,0,0,53.34,471a26.21,26.21,0,0,0,8.43-3.87,17.87,17.87,0,0,0,5.53-6.49,20.32,20.32,0,0,0,2-9.37A29.39,29.39,0,0,0,66.78,439m-.14,70.71a32.41,32.41,0,0,0-7.41-10.56,34.35,34.35,0,0,0-11.06-7,36.63,36.63,0,0,0-13.61-2.51,36.26,36.26,0,0,0-13.46,2.51,34.67,34.67,0,0,0-11,7,32.44,32.44,0,0,0-7.42,10.57,28.44,28.44,0,0,0-1.09,2.88v21c.21.67.47,1.32.73,2l11.67-4.69a22,22,0,0,1-.91-6.47,22.57,22.57,0,0,1,1.57-8.32A19.9,19.9,0,0,1,19.39,509a20.76,20.76,0,0,1,15.17-6.29A21,21,0,0,1,49.93,509a21.66,21.66,0,0,1,6.32,15.35,21,21,0,0,1-6.32,15.34A21,21,0,0,1,34.56,546H1.75v13.08H67.53V546H60.12l2.25-2.85a34.5,34.5,0,0,0,5-8.82,31.14,31.14,0,0,0,2-11.39,32.69,32.69,0,0,0-2.69-13.32m.89,93.87a33.77,33.77,0,0,0-5-8.35l-2.36-2.88h7.36V579.22H1.75V592.3h33A21.56,21.56,0,0,1,50,598.59a20.86,20.86,0,0,1,6.3,13.62h13.1a25.92,25.92,0,0,0-1.89-8.68m14.22,25.33H22.8a20.63,20.63,0,0,0-8.14,1.65A22.51,22.51,0,0,0,7.92,635a20.75,20.75,0,0,0-4.52,6.63,20.34,20.34,0,0,0-1.65,8.16v9.84H14.17l.66-.16v-9.68a7.6,7.6,0,0,1,2.31-5.54,7.74,7.74,0,0,1,5.66-2.31H46v13.34L59.09,652V641.94H85ZM48.17,177.57a34.72,34.72,0,0,0,18.51-18.52,28.65,28.65,0,0,0,1.11-3v-.18a35.85,35.85,0,0,0,0-20.79v-.17a28,28,0,0,0-1.11-3,34.68,34.68,0,0,0-18.51-18.5,33.89,33.89,0,0,0-13.41-2.7h-.2a33.68,33.68,0,0,0-13.41,2.7,34.8,34.8,0,0,0-11.07,7.42A35.19,35.19,0,0,0,2.64,132a28.1,28.1,0,0,0-1.1,3v.18a35.82,35.82,0,0,0,0,20.78v.18a29.46,29.46,0,0,0,1.1,3,34.65,34.65,0,0,0,18.51,18.51,34,34,0,0,0,13.41,2.69h.2A34,34,0,0,0,48.17,177.57ZM19.4,160.85a21,21,0,0,1-6.32-15.34,21.56,21.56,0,0,1,6.29-15.32,21,21,0,0,1,15.35-6.34,21.54,21.54,0,0,1,21.53,21.66A21.59,21.59,0,0,1,50,160.82a21,21,0,0,1-15.29,6.34A21,21,0,0,1,19.4,160.85ZM34.76,310.5a33.85,33.85,0,0,0,13.41-2.69,34.59,34.59,0,0,0,18.51-18.5,28.82,28.82,0,0,0,1.11-3v-.19a35.79,35.79,0,0,0,0-20.77v-.18a28.82,28.82,0,0,0-1.11-3A34.65,34.65,0,0,0,48.17,243.7,33.88,33.88,0,0,0,34.76,241h-.2a34,34,0,0,0-13.41,2.68A34.72,34.72,0,0,0,2.64,262.21a28.59,28.59,0,0,0-1.1,3v.19a35.82,35.82,0,0,0,0,20.78v.17a28.1,28.1,0,0,0,1.1,3,34.92,34.92,0,0,0,7.44,11.06,35.36,35.36,0,0,0,11.07,7.44,34.13,34.13,0,0,0,13.41,2.69h.2ZM19.4,291.11a21,21,0,0,1-6.32-15.36,21.6,21.6,0,0,1,6.29-15.31,21,21,0,0,1,15.29-6.34,21.56,21.56,0,0,1,21.59,21.65A21.61,21.61,0,0,1,50,291.08a21,21,0,0,1-15.34,6.33A21,21,0,0,1,19.4,291.11Z"/></g></g></g></svg>