<svg xmlns="http://www.w3.org/2000/svg" viewBox="0 0 20 22.15"><defs><style>.cls-1{fill:#fff;}</style></defs><g id="Слой_2" data-name="Слой 2"><g id="ВАРИАНТ_4_гибрид_" data-name="ВАРИАНТ 4 (гибрид)"><g id="всплывающие_меню_копия_" data-name="всплывающие меню (копия)"><g id="Кабинет"><path class="cls-1" d="M0,22.15H20l-5.15-6.43h-2c1.78-2.91,3.9-6.84,3.9-9a6.75,6.75,0,0,0-13.5,0c0,2.11,2.14,6.06,3.9,9h-2ZM10,1.3a5.45,5.45,0,0,1,5.44,5.45c0,2.67-4.52,9.64-5.44,11-.92-1.38-5.44-8.35-5.44-11A5.45,5.45,0,0,1,10,1.3Zm.54,18c.19-.28.82-1.2,1.6-2.45H14.3L17.62,21H2.38L5.7,16.86H7.86c.86,1.37,1.52,2.33,1.6,2.45l.54.77Z"/><path class="cls-1" d="M10,10.45a3.7,3.7,0,1,0-3.7-3.7A3.7,3.7,0,0,0,10,10.45Zm0-6.1a2.4,2.4,0,1,1-2.4,2.4A2.41,2.41,0,0,1,10,4.35Z"/></g></g></g></g></svg>