<svg xmlns="http://www.w3.org/2000/svg" viewBox="0 0 7.54 4.32"><defs><style>.cls-1{fill:#232328;}</style></defs><g id="Слой_2" data-name="Слой 2"><g id="ВАРИАНТ_4_гибрид_" data-name="ВАРИАНТ 4 (гибрид)"><g id="ГЛАВНАЯ_СТРАНИЦА_копия_" data-name="ГЛАВНАЯ СТРАНИЦА (копия)"><g id="ПОИСК_на_главном_экране" data-name="ПОИСК на главном экране"><g id="быстрый_поиск" data-name="быстрый поиск"><path class="cls-1" d="M0,.57A.35.35,0,0,0,.12.82L3.53,4.2a.29.29,0,0,0,.24.12A.26.26,0,0,0,4,4.2L7.42.82A.35.35,0,0,0,7.54.57.35.35,0,0,0,7.42.32L7.21.12A.27.27,0,0,0,7,0a.37.37,0,0,0-.27.12L3.77,3.06.82.12A.34.34,0,0,0,.56,0,.29.29,0,0,0,.32.12l-.2.2A.35.35,0,0,0,0,.57Z"/></g></g></g></g></g></svg>