<svg xmlns="http://www.w3.org/2000/svg" viewBox="0 0 23.85 31.43"><defs><style>.cls-1{fill:#f9bf26;}.cls-2{fill:#fff;}</style></defs><g id="Слой_2" data-name="Слой 2"><g id="ВАРИАНТ_4_гибрид_" data-name="ВАРИАНТ 4 (гибрид)"><g id="ГЛАВНАЯ_СТРАНИЦА_копия_" data-name="ГЛАВНАЯ СТРАНИЦА (копия)"><g id="Центральный_дисплей_копия_" data-name="Центральный дисплей (копия)"><g id="ДИСПЛЕЙ_С_МАШИНАМИ" data-name="ДИСПЛЕЙ С МАШИНАМИ"><polygon class="cls-1" points="9.04 2.93 11.97 0 14.9 2.93 9.04 2.93"/><rect class="cls-1" x="6.52" y="6.24" width="10.9" height="18.97" rx="5"/><polygon class="cls-1" points="14.9 28.5 11.97 31.43 9.04 28.5 14.9 28.5"/><path class="cls-2" d="M12.87,14.54c0,.19-.41.34-.9.34s-.89-.15-.89-.34V9.66c0-.19.4-.35.89-.35s.9.16.9.35Z"/><polygon class="cls-2" points="20.92 12.78 23.85 15.71 20.92 18.64 20.92 12.78"/><polygon class="cls-2" points="2.93 18.64 0 15.71 2.93 12.78 2.93 18.64"/></g></g></g></g></g></svg>