<svg xmlns="http://www.w3.org/2000/svg" viewBox="0 0 74.7 75.78"><defs><style>.cls-1{fill:#f9bf26;}</style></defs><g id="Слой_2" data-name="Слой 2"><g id="_1_Экран_со_свернутой_плиткой_копия_" data-name="1 Экран со свернутой плиткой (копия)"><g id="_0_НАЖАТ_Верхний_баннер" data-name="0 НАЖАТ Верхний баннер"><g id="общее"><path class="cls-1" d="M5.62,0A3.45,3.45,0,0,1,8.08,1.18L41.54,35.52a3,3,0,0,1,0,4.74L8.08,74.59a3.39,3.39,0,0,1-2.46,1.19,3.38,3.38,0,0,1-2.45-1.19l-2-2.07A2.82,2.82,0,0,1,0,70.16a3.73,3.73,0,0,1,1.15-2.67l29.14-29.6L1.15,8.29A3.69,3.69,0,0,1,0,5.63,2.83,2.83,0,0,1,1.15,3.26l2-2.08A3.45,3.45,0,0,1,5.62,0ZM35.18,1.18l-2,2.08A2.83,2.83,0,0,0,32,5.63a3.69,3.69,0,0,0,1.15,2.66l29.13,29.6L33.16,67.49A3.73,3.73,0,0,0,32,70.16a2.82,2.82,0,0,0,1.15,2.36l2,2.07a3.12,3.12,0,0,0,4.9,0L73.54,40.26a3,3,0,0,0,0-4.74L40.08,1.18a3.13,3.13,0,0,0-4.9,0Z"/></g></g></g></g></svg>