<svg xmlns="http://www.w3.org/2000/svg" xmlns:xlink="http://www.w3.org/1999/xlink" viewBox="0 0 33.33 33.33"><defs><style>.cls-1{fill:url(#Degradado_sin_nombre_3);}.cls-2{fill:#f5f9fd;}.cls-3{fill:#a9c9dd;}.cls-4{fill:#c8daea;}</style><linearGradient id="Degradado_sin_nombre_3" x1="-731.56" y1="1.32" x2="-731.56" y2="32.87" gradientTransform="translate(748.23)" gradientUnits="userSpaceOnUse"><stop offset="0" stop-color="#39b0e3"/><stop offset="1" stop-color="#1d93d2"/></linearGradient></defs><g id="Слой_2" data-name="Слой 2"><g id="ВАРИАНТ_4_гибрид_" data-name="ВАРИАНТ 4 (гибрид)"><g id="ГЛАВНАЯ_СТРАНИЦА_копия_" data-name="ГЛАВНАЯ СТРАНИЦА (копия)"><g id="фон_копия_" data-name="фон (копия)"><g id="левая_панель" data-name="левая панель"><path class="cls-1" d="M33.33,16.67A16.67,16.67,0,1,1,16.67,0,16.66,16.66,0,0,1,33.33,16.67Z"/><path class="cls-2" d="M23.88,8.78,6.5,15.33a.73.73,0,0,0,.06,1.39l6.08,1.71a.65.65,0,0,1,.22.11L20,24.32a1.18,1.18,0,0,0,1.91-.67L24.66,9.44A.58.58,0,0,0,23.88,8.78Z"/><path class="cls-3" d="M13.85,23.44,16,21.1,13.45,19l-.55,4.64A.87.87,0,0,0,13.85,23.44Z"/><path class="cls-4" d="M20.8,11.79l-10,6.11,1.58,5.2a.88.88,0,0,0,.54.57L13.45,19,21,12A.15.15,0,0,0,20.8,11.79Z"/></g></g></g></g></g></svg>