<svg xmlns="http://www.w3.org/2000/svg" xmlns:xlink="http://www.w3.org/1999/xlink" viewBox="0 0 68 67.98"><defs><style>.cls-1{fill:none;stroke-miterlimit:10;stroke:url(#Новый_образец_градиента);}.cls-2{clip-path:url(#clip-path);}.cls-3{fill:#767676;}</style><linearGradient id="Новый_образец_градиента" y1="33.99" x2="68" y2="33.99" gradientUnits="userSpaceOnUse"><stop offset="0" stop-color="#96a5b4"/><stop offset="0.08" stop-color="#b1bcc7"/><stop offset="0.24" stop-color="#dbe0e5"/><stop offset="0.36" stop-color="#f5f7f8"/><stop offset="0.43" stop-color="#fff"/><stop offset="0.48" stop-color="#f4f6f7"/><stop offset="0.57" stop-color="#d6dce2"/><stop offset="0.7" stop-color="#a7b3c0"/><stop offset="0.74" stop-color="#96a5b4"/><stop offset="0.85" stop-color="#c9d1d9"/><stop offset="0.95" stop-color="#f0f2f4"/><stop offset="1" stop-color="#fff"/></linearGradient><clipPath id="clip-path"><path class="cls-1" d="M67.5,34A33.5,33.5,0,1,1,34,.5,33.49,33.49,0,0,1,67.5,34Z"/></clipPath></defs><g id="Слой_2" data-name="Слой 2"><g id="ВАРИАНТ_4_гибрид_" data-name="ВАРИАНТ 4 (гибрид)"><g id="ГЛАВНАЯ_СТРАНИЦА_копия_" data-name="ГЛАВНАЯ СТРАНИЦА (копия)"><g id="фон_копия_" data-name="фон (копия)"><g id="левая_панель" data-name="левая панель"><g class="cls-2"><path class="cls-3" d="M34,.49A33.5,33.5,0,1,0,67.5,34,33.54,33.54,0,0,0,34,.49ZM24.84,27.62l.07-.07a.87.87,0,0,0,.36-.84c-.68-4.06-.23-5.75-.08-6.17,1.17-3.62,4.88-5.3,5.6-5.59a4.28,4.28,0,0,1,.73-.2l.09,0,.59,0v0h.14l.38-.06.13,0a20.21,20.21,0,0,1,3.7.84l1.49.51a8.2,8.2,0,0,1,4.2,2.6c2.18,2.47,1.6,6.19,1.06,8.2a.83.83,0,0,0,.11.68l.12.15c.16.21.3,1-.17,2.8a2.35,2.35,0,0,1-.58,1.26.76.76,0,0,0-.21.44c-.74,4.31-4.61,9.14-8.68,9.14-3.46,0-7.41-4.44-8.12-9.14a.86.86,0,0,0-.22-.46,2.53,2.53,0,0,1-.6-1.41A3.93,3.93,0,0,1,24.84,27.62ZM17.08,46.34a6.27,6.27,0,0,1,2.68-1.81,29,29,0,0,0,7.17-3.14,1.13,1.13,0,0,0,.26-.23c.19-.2.47-.5.81-.82l.19-.17.19.18a8.36,8.36,0,0,0,5.51,2.58,8.72,8.72,0,0,0,5.61-2.35l.14-.12.38.18a6.57,6.57,0,0,0,1.19.87l.35.17,0,0,.15.09c.33.2.69.39,1.11.6a11.71,11.71,0,0,0,1.15.45,38,38,0,0,1,3.85,1.53l.36.1a6.67,6.67,0,0,1,2.74,1.79c2.18,3.24,3,9.28,3.33,12.64a32,32,0,0,1-40.43,0C14.09,55.56,14.92,49.54,17.08,46.34Z"/></g><path class="cls-1" d="M67.5,34A33.5,33.5,0,1,1,34,.5,33.49,33.49,0,0,1,67.5,34Z"/></g></g></g></g></g></svg>