<svg xmlns="http://www.w3.org/2000/svg" viewBox="0 0 19.33 12.84"><defs><style>.cls-1{fill:#767676;}</style></defs><g id="Слой_2" data-name="Слой 2"><g id="_1_Экран_со_свернутой_плиткой_копия_" data-name="1 Экран со свернутой плиткой (копия)"><g id="хедер_копия2_" data-name="хедер (копия2)"><path class="cls-1" d="M9.71,11.28A8.71,8.71,0,0,0,14.33,9.9a8.29,8.29,0,0,0,3.33-3.52,9.6,9.6,0,0,0-3.33-3.54A9.69,9.69,0,0,0,9.71,1.57,9.35,9.35,0,0,0,5.1,2.84,8.85,8.85,0,0,0,1.77,6.38a8.47,8.47,0,0,0,2,2.54,8.47,8.47,0,0,0,2.84,1.77,8.62,8.62,0,0,0,3.14.59m9.52-5.4a1.09,1.09,0,0,1,.1.5.75.75,0,0,1-.1.49,10.41,10.41,0,0,1-3.92,4.31,10.13,10.13,0,0,1-5.6,1.66,10.74,10.74,0,0,1-3.92-.78A10,10,0,0,1,2.55,10,11.13,11.13,0,0,1,.1,6.87c0-.11-.1-.3-.1-.49a4.33,4.33,0,0,0,.1-.5,11.31,11.31,0,0,1,4-4.31A10,10,0,0,1,9.71,0a10.06,10.06,0,0,1,5.6,1.57A11.05,11.05,0,0,1,19.23,5.88ZM9.71,2.65a3.6,3.6,0,0,1,2.65,1.08,3.93,3.93,0,0,1,1.08,2.65A3.61,3.61,0,0,1,12.36,9,3.26,3.26,0,0,1,9.71,10.1,3.28,3.28,0,0,1,7.06,9,3.64,3.64,0,0,1,6,6.38a3.69,3.69,0,0,1,.09-1,2.86,2.86,0,0,0,.89.2A2.13,2.13,0,0,0,8.34,5.1a1.94,1.94,0,0,0,.59-1.37,1.65,1.65,0,0,0-.29-.89A4.46,4.46,0,0,1,9.71,2.65Z"/></g></g></g></svg>