<svg xmlns="http://www.w3.org/2000/svg" viewBox="0 0 33.33 33.33"><defs><style>.cls-1{fill:#30bf39;}.cls-2{fill:#fff;fill-rule:evenodd;}</style></defs><g id="Слой_2" data-name="Слой 2"><g id="ВАРИАНТ_4_гибрид_" data-name="ВАРИАНТ 4 (гибрид)"><g id="ГЛАВНАЯ_СТРАНИЦА_копия_" data-name="ГЛАВНАЯ СТРАНИЦА (копия)"><g id="фон_копия_" data-name="фон (копия)"><g id="левая_панель" data-name="левая панель"><path class="cls-1" d="M0,16.67A16.67,16.67,0,1,1,16.67,33.33,16.67,16.67,0,0,1,0,16.67Z"/><path class="cls-2" d="M21.7,18.19c-.22-.13-1.34-.73-1.55-.82s-.37-.13-.53.1-.63.73-.77.88-.28.17-.5,0a6.3,6.3,0,0,1-1.83-1.22,7.21,7.21,0,0,1-1.23-1.66.35.35,0,0,1,.12-.47c.11-.1.24-.26.37-.39a1.52,1.52,0,0,0,.24-.38.41.41,0,0,0,0-.4c-.06-.12-.48-1.28-.65-1.75s-.38-.41-.51-.41l-.44,0a.89.89,0,0,0-.63.27,2.54,2.54,0,0,0-.89,1.9,4.53,4.53,0,0,0,.86,2.44,9.55,9.55,0,0,0,3.83,3.65c2.33,1,2.34.71,2.76.69A2.35,2.35,0,0,0,22,19.57a1.91,1.91,0,0,0,.18-1.09c-.06-.1-.21-.17-.44-.29Zm-4.26,5.5a7.49,7.49,0,0,1-4.16-1.25l-2.91.93.94-2.81a7.57,7.57,0,1,1,6.13,3.13ZM17.44,7A9.1,9.1,0,0,0,9.65,20.82L8,25.69l5-1.61A9.09,9.09,0,1,0,17.44,7Z"/></g></g></g></g></g></svg>