<svg xmlns="http://www.w3.org/2000/svg" viewBox="0 0 15.17 15.67"><defs><style>.cls-1{fill:#767676;}</style></defs><g id="Слой_2" data-name="Слой 2"><g id="_2_Экран_с_развернутой_плиткой" data-name="2 Экран с развернутой плиткой"><g id="расширенный_поиск" data-name="расширенный поиск"><path class="cls-1" d="M15.17,1.18a.72.72,0,0,1-.24.51l-6.87,7A.57.57,0,0,1,7.58,9a.55.55,0,0,1-.47-.24l-6.87-7A.72.72,0,0,1,0,1.18.72.72,0,0,1,.24.67L.65.24A.57.57,0,0,1,1.13,0a.74.74,0,0,1,.53.24L7.58,6.35,13.51.24A.71.71,0,0,1,14,0a.55.55,0,0,1,.47.24l.42.43A.72.72,0,0,1,15.17,1.18Zm-.24,6.2L14.51,7A.54.54,0,0,0,14,6.71a.69.69,0,0,0-.53.25L7.58,13.07,1.66,7a.72.72,0,0,0-.53-.25A.56.56,0,0,0,.65,7l-.41.42A.72.72,0,0,0,0,7.89a.74.74,0,0,0,.24.52l6.87,7a.55.55,0,0,0,.47.24.57.57,0,0,0,.48-.24l6.87-7a.74.74,0,0,0,.24-.52A.72.72,0,0,0,14.93,7.38Z"/></g></g></g></svg>