<svg xmlns="http://www.w3.org/2000/svg" viewBox="0 0 20.06 17.56"><defs><style>.cls-1{fill:#fff;}</style></defs><g id="Слой_2" data-name="Слой 2"><g id="ВАРИАНТ_4_гибрид_" data-name="ВАРИАНТ 4 (гибрид)"><g id="всплывающие_меню_копия_" data-name="всплывающие меню (копия)"><g id="Кабинет"><path class="cls-1" d="M0,.63a.63.63,0,0,0,.63.62H2.56L3.76,15.1h0a2.51,2.51,0,0,0,4.94.58h2.67a2.51,2.51,0,1,0,0-1.26H8.7A2.51,2.51,0,0,0,4.84,13l-.18-2h.07l12.86-.62a.63.63,0,0,0,.57-.46L20,3.31a.6.6,0,0,0-.1-.55.63.63,0,0,0-.5-.25H3.93L3.76.57A.63.63,0,0,0,3.14,0H.63A.63.63,0,0,0,0,.63ZM13.79,13.79a1.26,1.26,0,1,1-1.25,1.26A1.26,1.26,0,0,1,13.79,13.79Zm-7.52,0A1.26,1.26,0,1,1,5,15.05,1.26,1.26,0,0,1,6.27,13.79Zm12.34-10L17.08,9.11,4.67,9.72l-.11,0L4,3.76Z"/></g></g></g></g></svg>