<svg xmlns="http://www.w3.org/2000/svg" viewBox="0 0 15.4 20.42"><defs><style>.cls-1{fill:#767676;}</style></defs><g id="Слой_2" data-name="Слой 2"><g id="_1_Экран_со_свернутой_плиткой_копия_" data-name="1 Экран со свернутой плиткой (копия)"><g id="хедер_копия2_" data-name="хедер (копия2)"><g id="параметры"><path class="cls-1" d="M13.26,6h.86A1.28,1.28,0,0,0,15.4,4.68V1.28A1.28,1.28,0,0,0,14.12,0h-.86A1.28,1.28,0,0,0,12,1.28v.88l-3.12.29a1.27,1.27,0,0,0-2.32,0L3.42,2.16V1.28A1.28,1.28,0,0,0,2.14,0H1.28A1.28,1.28,0,0,0,0,1.28v3.4A1.29,1.29,0,0,0,1.28,6h.86A1.28,1.28,0,0,0,3.42,4.68V3.79l3.12-.28a1.27,1.27,0,0,0,.31.42l.31,4.6a.43.43,0,0,0-.32.4v2.56a.43.43,0,0,0,.3.4l-.29,3.75a1.29,1.29,0,0,0-.43.95v.31l-3-.27v-.89a1.28,1.28,0,0,0-1.28-1.28H1.28A1.29,1.29,0,0,0,0,15.74v3.4a1.28,1.28,0,0,0,1.28,1.28h.86a1.28,1.28,0,0,0,1.28-1.28v-.88l3-.27v.3a1.28,1.28,0,0,0,2.56,0V18l3,.27v.88a1.28,1.28,0,0,0,1.28,1.28h.86a1.28,1.28,0,0,0,1.28-1.28v-3.4a1.28,1.28,0,0,0-1.28-1.28h-.86A1.28,1.28,0,0,0,12,15.74v.89L9,16.9v-.31a1.29,1.29,0,0,0-.43-.95l-.29-3.75a.43.43,0,0,0,.3-.4V8.93a.43.43,0,0,0-.32-.4l.31-4.6a1.27,1.27,0,0,0,.31-.42L12,3.79v.89A1.28,1.28,0,0,0,13.26,6Z"/></g></g></g></g></svg>