<svg xmlns="http://www.w3.org/2000/svg" viewBox="0 0 20.07 8.78"><defs><style>.cls-1{fill:#fff;}</style></defs><g id="Слой_2" data-name="Слой 2"><g id="ВАРИАНТ_4_гибрид_" data-name="ВАРИАНТ 4 (гибрид)"><g id="всплывающие_меню_копия_" data-name="всплывающие меню (копия)"><g id="Кабинет"><g id="авторизация_регистрация" data-name="авторизация регистрация"><path class="cls-1" d="M15.68,0a4.39,4.39,0,0,0-4.34,3.76H.63A.63.63,0,0,0,.63,5h.62V6.9a.63.63,0,0,0,1.26,0V5H3.76v.62A.63.63,0,0,0,5,5.64V5h6.32a4.39,4.39,0,1,0,4.34-5Zm0,7.52a3.14,3.14,0,1,1,3.13-3.13A3.14,3.14,0,0,1,15.68,7.52Z"/></g></g></g></g></g></svg>