<svg xmlns="http://www.w3.org/2000/svg" viewBox="0 0 15.4 20.42"><defs><style>.cls-1{fill:#767676;}</style></defs><g id="Слой_2" data-name="Слой 2"><g id="_1_Экран_со_свернутой_плиткой_копия_" data-name="1 Экран со свернутой плиткой (копия)"><g id="хедер_копия2_" data-name="хедер (копия2)"><g id="параметры"><path class="cls-1" d="M13.69,8.51H9v-2a3.42,3.42,0,1,0-2.56,0v6.64a1.28,1.28,0,0,0,2.56,0v-.43H10.7a.42.42,0,0,0,.42-.42V11.06a.86.86,0,0,1,.86-.85.85.85,0,0,1,.85.85v6.81a.85.85,0,0,1-.85.85.86.86,0,0,1-.86-.85V15.74a.43.43,0,0,0-.42-.43H9a.43.43,0,0,0-.42.43v2.13a.86.86,0,0,1-1.72,0V15.74a.43.43,0,0,0-.42-.43H4.71a.43.43,0,0,0-.43.43v2.13a.86.86,0,0,1-.86.85.85.85,0,0,1-.85-.85V11.06a.85.85,0,0,1,.85-.85.86.86,0,0,1,.86.85v1.28a.42.42,0,0,0,.43.42h.42a.42.42,0,0,0,.43-.42V8.93a.42.42,0,0,0-.43-.42H1.71A1.71,1.71,0,0,0,0,10.21v8.51a1.71,1.71,0,0,0,1.71,1.7h12a1.71,1.71,0,0,0,1.71-1.7V10.21A1.71,1.71,0,0,0,13.69,8.51Zm-7.06-6a.64.64,0,1,1,.64-.64A.64.64,0,0,1,6.63,2.55Z"/></g></g></g></g></svg>