<svg xmlns="http://www.w3.org/2000/svg" viewBox="0 0 33.33 33.33"><defs><style>.cls-1{fill:#008bc2;}.cls-2{fill:#fff;fill-rule:evenodd;}</style></defs><g id="Слой_2" data-name="Слой 2"><g id="ВАРИАНТ_4_гибрид_" data-name="ВАРИАНТ 4 (гибрид)"><g id="ГЛАВНАЯ_СТРАНИЦА_копия_" data-name="ГЛАВНАЯ СТРАНИЦА (копия)"><g id="фон_копия_" data-name="фон (копия)"><g id="левая_панель" data-name="левая панель"><path class="cls-1" d="M0,16.67A16.67,16.67,0,1,1,16.67,33.33,16.67,16.67,0,0,1,0,16.67Z"/><path class="cls-2" d="M17.43,6.46c-5.88,0-10.64,4.46-10.64,10a9.7,9.7,0,0,0,3.88,7.69L10.88,28l3.68-2a11.35,11.35,0,0,0,2.87.37c5.88,0,10.65-4.46,10.65-10S23.31,6.46,17.43,6.46ZM18.54,20l-2.65-3-5.48,3,5.95-6.54,2.74,2.87,5.44-2.7Z"/></g></g></g></g></g></svg>