<svg xmlns="http://www.w3.org/2000/svg" viewBox="0 0 20.07 20.07"><defs><style>.cls-1{fill:#f9bf26;}</style></defs><g id="Слой_2" data-name="Слой 2"><g id="ВАРИАНТ_4_гибрид_" data-name="ВАРИАНТ 4 (гибрид)"><g id="всплывающие_меню_копия_" data-name="всплывающие меню (копия)"><g id="Кабинет"><path class="cls-1" d="M10,0A10,10,0,0,0,0,10a10,10,0,1,0,20.07,0A10,10,0,0,0,10,0Zm6.21,16.24A8.79,8.79,0,0,1,1.25,10a8.78,8.78,0,0,1,15-6.2,8.78,8.78,0,0,1,0,12.41Z"/><path class="cls-1" d="M13.12,9.8,10.61,3.53A.61.61,0,0,0,10,3.14a.63.63,0,0,0-.58.39L6.94,9.8a.66.66,0,0,0,0,.46h0l2.51,6.27a.64.64,0,0,0,.58.39.62.62,0,0,0,.58-.39l2.51-6.27h0A.61.61,0,0,0,13.12,9.8ZM10,5.45l1.58,4H8.45Zm0,9.16L8.45,10.66h3.16Z"/></g></g></g></g></svg>