<svg xmlns="http://www.w3.org/2000/svg" viewBox="0 0 25.41 25.41"><defs><style>.cls-1{fill:#c6c6c6;}</style></defs><g id="Слой_2" data-name="Слой 2"><g id="_1_Экран_со_свернутой_плиткой_копия_" data-name="1 Экран со свернутой плиткой (копия)"><g id="хедер_копия2_" data-name="хедер (копия2)"><path class="cls-1" d="M0,12.71a12.71,12.71,0,1,1,12.71,12.7A12.72,12.72,0,0,1,0,12.71Zm.79,0A11.92,11.92,0,1,0,12.71.8,11.93,11.93,0,0,0,.79,12.71Zm7,6.09-.34-.34a.47.47,0,0,1-.19-.4.61.61,0,0,1,.19-.44l4.86-4.91L7.47,7.79a.61.61,0,0,1-.19-.44A.47.47,0,0,1,7.47,7l.34-.35a.56.56,0,0,1,.41-.19.58.58,0,0,1,.41.19l5.57,5.7a.47.47,0,0,1,.19.4.47.47,0,0,1-.19.39L8.63,18.8a.59.59,0,0,1-.41.2A.57.57,0,0,1,7.81,18.8Zm5.74.2a.59.59,0,0,0,.41-.2l5.57-5.7a.47.47,0,0,0,.19-.39.47.47,0,0,0-.19-.4L14,6.61a.58.58,0,0,0-.41-.19.56.56,0,0,0-.41.19L12.8,7a.49.49,0,0,0-.19.39.65.65,0,0,0,.19.44l4.86,4.92L12.8,17.62a.65.65,0,0,0-.19.44.5.5,0,0,0,.19.4l.34.34A.57.57,0,0,0,13.55,19Z"/></g></g></g></svg>