<svg xmlns="http://www.w3.org/2000/svg" viewBox="0 0 33.33 33.33"><defs><style>.cls-1{fill:#7b519d;}.cls-2{fill:#fff;}</style></defs><g id="Слой_2" data-name="Слой 2"><g id="ВАРИАНТ_4_гибрид_" data-name="ВАРИАНТ 4 (гибрид)"><g id="ГЛАВНАЯ_СТРАНИЦА_копия_" data-name="ГЛАВНАЯ СТРАНИЦА (копия)"><g id="фон_копия_" data-name="фон (копия)"><g id="левая_панель" data-name="левая панель"><path class="cls-1" d="M0,16.67A16.67,16.67,0,1,1,16.66,33.33,16.66,16.66,0,0,1,0,16.67Z"/><g id="g4780"><g id="g15"><path id="path17-6" class="cls-2" d="M24,20.48c-.53-.43-1.11-.82-1.67-1.22-1.13-.79-2.16-.85-3,.42a1.32,1.32,0,0,1-1.83.44A8.12,8.12,0,0,1,13.23,16a1.6,1.6,0,0,1,.52-2.23,1.58,1.58,0,0,0,.91-1.4c-.05-.91-2.27-4-3.15-4.29a1.63,1.63,0,0,0-1.09,0,3.09,3.09,0,0,0-2.09,4.38A22.74,22.74,0,0,0,20.93,25.1a5.82,5.82,0,0,0,.9.25,4.07,4.07,0,0,0,3.36-2.56c.44-1.23-.49-1.72-1.22-2.31Z"/><path id="path19-1" class="cls-2" d="M17.37,8.44c4.31.66,6.29,2.71,6.84,7,.05.4-.1,1,.47,1s.46-.58.46-1a8.18,8.18,0,0,0-7.64-8c-.32,0-1-.22-1,.48,0,.47.52.4.87.45Z"/><path id="path21-2" class="cls-2" d="M18.21,9.63c-.41-.05-1-.25-1.05.33s.51.54.9.63c2.66.59,3.58,1.56,4,4.2.06.38-.06,1,.59.88.48-.07.31-.59.35-.89a5.42,5.42,0,0,0-4.81-5.15Z"/><path id="path23" class="cls-2" d="M18.46,11.7c-.28,0-.55,0-.65.33-.15.44.17.55.49.6a1.93,1.93,0,0,1,1.78,1.91c0,.29.21.53.5.5s.43-.4.42-.74a2.87,2.87,0,0,0-2.54-2.6Z"/></g></g></g></g></g></g></g></svg>